<mxfile host="Electron" modified="2025-03-28T23:47:02.824Z" agent="Mozilla/5.0 (Windows NT 10.0; Win64; x64) AppleWebKit/537.36 (KHTML, like Gecko) draw.io/21.2.8 Chrome/112.0.5615.165 Electron/24.2.0 Safari/537.36" etag="OQx_hrD3GOIEEVe0fpEj" version="21.2.8" type="device">
  <diagram name="PÃ¡gina-1" id="CQaZyUHJ36-GpJxzHOFn">
    <mxGraphModel dx="2382" dy="2290" grid="0" gridSize="10" guides="1" tooltips="1" connect="1" arrows="1" fold="1" page="0" pageScale="1" pageWidth="1169" pageHeight="827" math="0" shadow="0">
      <root>
        <mxCell id="0" />
        <mxCell id="1" parent="0" />
        <mxCell id="JQFZiihBjb8VBBAp4GYo-59" value="VPC Peering&amp;nbsp;" style="edgeStyle=orthogonalEdgeStyle;rounded=0;orthogonalLoop=1;jettySize=auto;html=1;entryX=0.5;entryY=0;entryDx=0;entryDy=0;" edge="1" parent="1" source="svqc5sDUxJxUhp27ImZt-119" target="JQFZiihBjb8VBBAp4GYo-42">
          <mxGeometry relative="1" as="geometry" />
        </mxCell>
        <mxCell id="svqc5sDUxJxUhp27ImZt-119" value="VPC (10.0.0.0/16) - us-east-1" style="points=[[0,0],[0.25,0],[0.5,0],[0.75,0],[1,0],[1,0.25],[1,0.5],[1,0.75],[1,1],[0.75,1],[0.5,1],[0.25,1],[0,1],[0,0.75],[0,0.5],[0,0.25]];outlineConnect=0;gradientColor=none;html=1;whiteSpace=wrap;fontSize=12;fontStyle=0;container=1;pointerEvents=0;collapsible=0;recursiveResize=0;shape=mxgraph.aws4.group;grIcon=mxgraph.aws4.group_vpc;strokeColor=#248814;fillColor=none;verticalAlign=top;align=left;spacingLeft=30;fontColor=#AAB7B8;dashed=0;" parent="1" vertex="1">
          <mxGeometry x="-1113" y="-1128" width="916" height="707" as="geometry" />
        </mxCell>
        <mxCell id="svqc5sDUxJxUhp27ImZt-122" value="us-east-1a" style="fillColor=none;strokeColor=#147EBA;dashed=1;verticalAlign=top;fontStyle=0;fontColor=#147EBA;whiteSpace=wrap;html=1;" parent="svqc5sDUxJxUhp27ImZt-119" vertex="1">
          <mxGeometry x="51" y="54.87" width="386.75" height="610.13" as="geometry" />
        </mxCell>
        <mxCell id="svqc5sDUxJxUhp27ImZt-127" value="us-east-1b" style="fillColor=none;strokeColor=#147EBA;dashed=1;verticalAlign=top;fontStyle=0;fontColor=#147EBA;whiteSpace=wrap;html=1;" parent="svqc5sDUxJxUhp27ImZt-119" vertex="1">
          <mxGeometry x="479" y="54.87" width="394" height="611.13" as="geometry" />
        </mxCell>
        <mxCell id="svqc5sDUxJxUhp27ImZt-130" value="Private subnet (10.0.4.0/24)" style="points=[[0,0],[0.25,0],[0.5,0],[0.75,0],[1,0],[1,0.25],[1,0.5],[1,0.75],[1,1],[0.75,1],[0.5,1],[0.25,1],[0,1],[0,0.75],[0,0.5],[0,0.25]];outlineConnect=0;gradientColor=none;html=1;whiteSpace=wrap;fontSize=12;fontStyle=0;container=1;pointerEvents=0;collapsible=0;recursiveResize=0;shape=mxgraph.aws4.group;grIcon=mxgraph.aws4.group_security_group;grStroke=0;strokeColor=#147EBA;fillColor=#E6F2F8;verticalAlign=top;align=left;spacingLeft=30;fontColor=#147EBA;dashed=0;" parent="svqc5sDUxJxUhp27ImZt-119" vertex="1">
          <mxGeometry x="514" y="314.13" width="322" height="321.87" as="geometry" />
        </mxCell>
        <mxCell id="svqc5sDUxJxUhp27ImZt-35" value="Public subnet (10.0.1.0/24)" style="points=[[0,0],[0.25,0],[0.5,0],[0.75,0],[1,0],[1,0.25],[1,0.5],[1,0.75],[1,1],[0.75,1],[0.5,1],[0.25,1],[0,1],[0,0.75],[0,0.5],[0,0.25]];outlineConnect=0;gradientColor=none;html=1;whiteSpace=wrap;fontSize=12;fontStyle=0;container=1;pointerEvents=0;collapsible=0;recursiveResize=0;shape=mxgraph.aws4.group;grIcon=mxgraph.aws4.group_security_group;grStroke=0;strokeColor=#248814;fillColor=#E9F3E6;verticalAlign=top;align=left;spacingLeft=30;fontColor=#248814;dashed=0;" parent="svqc5sDUxJxUhp27ImZt-119" vertex="1">
          <mxGeometry x="80" y="107" width="320" height="183" as="geometry" />
        </mxCell>
        <mxCell id="svqc5sDUxJxUhp27ImZt-124" value="Private subnet (10.0.2.0/24)" style="points=[[0,0],[0.25,0],[0.5,0],[0.75,0],[1,0],[1,0.25],[1,0.5],[1,0.75],[1,1],[0.75,1],[0.5,1],[0.25,1],[0,1],[0,0.75],[0,0.5],[0,0.25]];outlineConnect=0;gradientColor=none;html=1;whiteSpace=wrap;fontSize=12;fontStyle=0;container=1;pointerEvents=0;collapsible=0;recursiveResize=0;shape=mxgraph.aws4.group;grIcon=mxgraph.aws4.group_security_group;grStroke=0;strokeColor=#147EBA;fillColor=#E6F2F8;verticalAlign=top;align=left;spacingLeft=30;fontColor=#147EBA;dashed=0;" parent="svqc5sDUxJxUhp27ImZt-119" vertex="1">
          <mxGeometry x="80" y="314.13" width="322" height="319.87" as="geometry" />
        </mxCell>
        <mxCell id="svqc5sDUxJxUhp27ImZt-131" value="Public subnet (10.0.3.0/24)" style="points=[[0,0],[0.25,0],[0.5,0],[0.75,0],[1,0],[1,0.25],[1,0.5],[1,0.75],[1,1],[0.75,1],[0.5,1],[0.25,1],[0,1],[0,0.75],[0,0.5],[0,0.25]];outlineConnect=0;gradientColor=none;html=1;whiteSpace=wrap;fontSize=12;fontStyle=0;container=1;pointerEvents=0;collapsible=0;recursiveResize=0;shape=mxgraph.aws4.group;grIcon=mxgraph.aws4.group_security_group;grStroke=0;strokeColor=#248814;fillColor=#E9F3E6;verticalAlign=top;align=left;spacingLeft=30;fontColor=#248814;dashed=0;" parent="svqc5sDUxJxUhp27ImZt-119" vertex="1">
          <mxGeometry x="516" y="107" width="320" height="183" as="geometry" />
        </mxCell>
        <mxCell id="svqc5sDUxJxUhp27ImZt-125" value="Load Balancer" style="rounded=1;whiteSpace=wrap;html=1;" parent="svqc5sDUxJxUhp27ImZt-131" vertex="1">
          <mxGeometry x="-341.5" y="54" width="567" height="95" as="geometry" />
        </mxCell>
        <mxCell id="svqc5sDUxJxUhp27ImZt-88" value="Kubernetes" style="points=[[0,0],[0.25,0],[0.5,0],[0.75,0],[1,0],[1,0.25],[1,0.5],[1,0.75],[1,1],[0.75,1],[0.5,1],[0.25,1],[0,1],[0,0.75],[0,0.5],[0,0.25]];outlineConnect=0;html=1;whiteSpace=wrap;fontSize=12;fontStyle=0;container=1;pointerEvents=0;collapsible=0;recursiveResize=0;shape=mxgraph.aws4.group;grIcon=mxgraph.aws4.group_aws_step_functions_workflow;strokeColor=#b85450;fillColor=#f8cecc;verticalAlign=top;align=left;spacingLeft=30;dashed=0;" parent="svqc5sDUxJxUhp27ImZt-119" vertex="1">
          <mxGeometry x="110.5" y="352" width="695" height="239" as="geometry" />
        </mxCell>
        <mxCell id="JQFZiihBjb8VBBAp4GYo-15" value="Services" style="points=[[0,0],[0.25,0],[0.5,0],[0.75,0],[1,0],[1,0.25],[1,0.5],[1,0.75],[1,1],[0.75,1],[0.5,1],[0.25,1],[0,1],[0,0.75],[0,0.5],[0,0.25]];outlineConnect=0;gradientColor=none;html=1;whiteSpace=wrap;fontSize=12;fontStyle=0;container=1;pointerEvents=0;collapsible=0;recursiveResize=0;shape=mxgraph.aws4.group;grIcon=mxgraph.aws4.group_on_premise;strokeColor=#5A6C86;fillColor=none;verticalAlign=top;align=left;spacingLeft=30;fontColor=#5A6C86;dashed=0;" vertex="1" parent="svqc5sDUxJxUhp27ImZt-88">
          <mxGeometry x="38" y="39.5" width="389" height="166.5" as="geometry" />
        </mxCell>
        <mxCell id="svqc5sDUxJxUhp27ImZt-3" value="API Gateway" style="rounded=1;whiteSpace=wrap;html=1;" parent="JQFZiihBjb8VBBAp4GYo-15" vertex="1">
          <mxGeometry x="250.5" y="34.5" width="120" height="40" as="geometry" />
        </mxCell>
        <mxCell id="JQFZiihBjb8VBBAp4GYo-7" value="Message Bus&lt;br&gt;Rabbit MQ" style="rounded=1;whiteSpace=wrap;html=1;" vertex="1" parent="JQFZiihBjb8VBBAp4GYo-15">
          <mxGeometry x="25" y="108.5" width="120" height="40" as="geometry" />
        </mxCell>
        <mxCell id="svqc5sDUxJxUhp27ImZt-160" value="Financial Worker&lt;br&gt;(Asp.Net Web API)" style="rounded=1;whiteSpace=wrap;html=1;" parent="JQFZiihBjb8VBBAp4GYo-15" vertex="1">
          <mxGeometry x="249.5" y="108.5" width="120" height="40" as="geometry" />
        </mxCell>
        <mxCell id="JQFZiihBjb8VBBAp4GYo-18" style="edgeStyle=orthogonalEdgeStyle;rounded=0;orthogonalLoop=1;jettySize=auto;html=1;entryX=0;entryY=0.5;entryDx=0;entryDy=0;" edge="1" parent="JQFZiihBjb8VBBAp4GYo-15" source="JQFZiihBjb8VBBAp4GYo-7" target="svqc5sDUxJxUhp27ImZt-160">
          <mxGeometry relative="1" as="geometry" />
        </mxCell>
        <mxCell id="svqc5sDUxJxUhp27ImZt-64" value="FinancialAPI&lt;br&gt;(Asp.Net Web API)" style="rounded=1;whiteSpace=wrap;html=1;" parent="svqc5sDUxJxUhp27ImZt-119" vertex="1">
          <mxGeometry x="173.5" y="426" width="120" height="40" as="geometry" />
        </mxCell>
        <mxCell id="JQFZiihBjb8VBBAp4GYo-16" style="edgeStyle=orthogonalEdgeStyle;rounded=0;orthogonalLoop=1;jettySize=auto;html=1;entryX=1;entryY=0.5;entryDx=0;entryDy=0;" edge="1" parent="svqc5sDUxJxUhp27ImZt-119" source="svqc5sDUxJxUhp27ImZt-3" target="svqc5sDUxJxUhp27ImZt-64">
          <mxGeometry relative="1" as="geometry" />
        </mxCell>
        <mxCell id="JQFZiihBjb8VBBAp4GYo-17" style="edgeStyle=orthogonalEdgeStyle;rounded=0;orthogonalLoop=1;jettySize=auto;html=1;" edge="1" parent="svqc5sDUxJxUhp27ImZt-119" source="svqc5sDUxJxUhp27ImZt-64" target="JQFZiihBjb8VBBAp4GYo-7">
          <mxGeometry relative="1" as="geometry" />
        </mxCell>
        <mxCell id="JQFZiihBjb8VBBAp4GYo-25" style="edgeStyle=orthogonalEdgeStyle;rounded=0;orthogonalLoop=1;jettySize=auto;html=1;entryX=1;entryY=0.5;entryDx=0;entryDy=0;dashed=1;" edge="1" parent="svqc5sDUxJxUhp27ImZt-119" source="JQFZiihBjb8VBBAp4GYo-19" target="JQFZiihBjb8VBBAp4GYo-15">
          <mxGeometry relative="1" as="geometry" />
        </mxCell>
        <mxCell id="JQFZiihBjb8VBBAp4GYo-19" value="Observability" style="points=[[0,0],[0.25,0],[0.5,0],[0.75,0],[1,0],[1,0.25],[1,0.5],[1,0.75],[1,1],[0.75,1],[0.5,1],[0.25,1],[0,1],[0,0.75],[0,0.5],[0,0.25]];outlineConnect=0;gradientColor=none;html=1;whiteSpace=wrap;fontSize=12;fontStyle=0;container=1;pointerEvents=0;collapsible=0;recursiveResize=0;shape=mxgraph.aws4.group;grIcon=mxgraph.aws4.group_on_premise;strokeColor=#5A6C86;fillColor=none;verticalAlign=top;align=left;spacingLeft=30;fontColor=#5A6C86;dashed=0;" vertex="1" parent="svqc5sDUxJxUhp27ImZt-119">
          <mxGeometry x="623" y="391" width="156" height="167" as="geometry" />
        </mxCell>
        <mxCell id="svqc5sDUxJxUhp27ImZt-55" value="Prometheus" style="rounded=1;whiteSpace=wrap;html=1;" parent="JQFZiihBjb8VBBAp4GYo-19" vertex="1">
          <mxGeometry x="18.5" y="107" width="120" height="40" as="geometry" />
        </mxCell>
        <mxCell id="svqc5sDUxJxUhp27ImZt-138" value="Grafana" style="rounded=1;whiteSpace=wrap;html=1;" parent="svqc5sDUxJxUhp27ImZt-119" vertex="1">
          <mxGeometry x="641.5" y="426" width="120" height="40" as="geometry" />
        </mxCell>
        <mxCell id="JQFZiihBjb8VBBAp4GYo-26" style="edgeStyle=orthogonalEdgeStyle;rounded=0;orthogonalLoop=1;jettySize=auto;html=1;entryX=0.5;entryY=0;entryDx=0;entryDy=0;" edge="1" parent="svqc5sDUxJxUhp27ImZt-119" source="svqc5sDUxJxUhp27ImZt-125" target="svqc5sDUxJxUhp27ImZt-3">
          <mxGeometry relative="1" as="geometry" />
        </mxCell>
        <mxCell id="JQFZiihBjb8VBBAp4GYo-29" style="edgeStyle=orthogonalEdgeStyle;rounded=0;orthogonalLoop=1;jettySize=auto;html=1;entryX=0;entryY=0.5;entryDx=0;entryDy=0;" edge="1" parent="svqc5sDUxJxUhp27ImZt-119" source="svqc5sDUxJxUhp27ImZt-3" target="svqc5sDUxJxUhp27ImZt-138">
          <mxGeometry relative="1" as="geometry" />
        </mxCell>
        <mxCell id="JQFZiihBjb8VBBAp4GYo-69" style="edgeStyle=orthogonalEdgeStyle;rounded=0;orthogonalLoop=1;jettySize=auto;html=1;entryX=0.5;entryY=1;entryDx=0;entryDy=0;" edge="1" parent="svqc5sDUxJxUhp27ImZt-119" source="svqc5sDUxJxUhp27ImZt-55" target="svqc5sDUxJxUhp27ImZt-138">
          <mxGeometry relative="1" as="geometry" />
        </mxCell>
        <mxCell id="svqc5sDUxJxUhp27ImZt-148" style="edgeStyle=orthogonalEdgeStyle;rounded=0;orthogonalLoop=1;jettySize=auto;html=1;" parent="1" source="svqc5sDUxJxUhp27ImZt-123" target="svqc5sDUxJxUhp27ImZt-125" edge="1">
          <mxGeometry relative="1" as="geometry" />
        </mxCell>
        <mxCell id="svqc5sDUxJxUhp27ImZt-123" value="WAF + CloudFront" style="rounded=1;whiteSpace=wrap;html=1;" parent="1" vertex="1">
          <mxGeometry x="-752.75" y="-1204" width="195.5" height="40" as="geometry" />
        </mxCell>
        <mxCell id="svqc5sDUxJxUhp27ImZt-151" style="edgeStyle=orthogonalEdgeStyle;rounded=0;orthogonalLoop=1;jettySize=auto;html=1;entryX=0.5;entryY=0;entryDx=0;entryDy=0;" parent="1" source="svqc5sDUxJxUhp27ImZt-147" target="svqc5sDUxJxUhp27ImZt-123" edge="1">
          <mxGeometry relative="1" as="geometry" />
        </mxCell>
        <mxCell id="svqc5sDUxJxUhp27ImZt-147" value="Gerador de LanÃ§amentos&lt;br&gt;(API Key + JWT)" style="rounded=1;whiteSpace=wrap;html=1;" parent="1" vertex="1">
          <mxGeometry x="-875.12" y="-1349" width="195.5" height="40" as="geometry" />
        </mxCell>
        <mxCell id="svqc5sDUxJxUhp27ImZt-150" style="edgeStyle=orthogonalEdgeStyle;rounded=0;orthogonalLoop=1;jettySize=auto;html=1;" parent="1" source="svqc5sDUxJxUhp27ImZt-149" target="svqc5sDUxJxUhp27ImZt-123" edge="1">
          <mxGeometry relative="1" as="geometry" />
        </mxCell>
        <mxCell id="svqc5sDUxJxUhp27ImZt-149" value="UsuÃ¡rio Grafana&lt;br&gt;Acesso via SSO" style="rounded=1;whiteSpace=wrap;html=1;" parent="1" vertex="1">
          <mxGeometry x="-630.37" y="-1349" width="195.5" height="40" as="geometry" />
        </mxCell>
        <mxCell id="JQFZiihBjb8VBBAp4GYo-42" value="VPC - MongoDB Atlas" style="points=[[0,0],[0.25,0],[0.5,0],[0.75,0],[1,0],[1,0.25],[1,0.5],[1,0.75],[1,1],[0.75,1],[0.5,1],[0.25,1],[0,1],[0,0.75],[0,0.5],[0,0.25]];outlineConnect=0;gradientColor=none;html=1;whiteSpace=wrap;fontSize=12;fontStyle=0;container=1;pointerEvents=0;collapsible=0;recursiveResize=0;shape=mxgraph.aws4.group;grIcon=mxgraph.aws4.group_vpc;strokeColor=#248814;fillColor=none;verticalAlign=top;align=left;spacingLeft=30;fontColor=#AAB7B8;dashed=0;" vertex="1" parent="1">
          <mxGeometry x="-1113" y="-365" width="917" height="249" as="geometry" />
        </mxCell>
        <mxCell id="JQFZiihBjb8VBBAp4GYo-54" value="us-east-1a" style="fillColor=none;strokeColor=#147EBA;dashed=1;verticalAlign=top;fontStyle=0;fontColor=#147EBA;whiteSpace=wrap;html=1;" vertex="1" parent="JQFZiihBjb8VBBAp4GYo-42">
          <mxGeometry x="35" y="46.25" width="242" height="173.5" as="geometry" />
        </mxCell>
        <mxCell id="JQFZiihBjb8VBBAp4GYo-55" value="us-east-1b" style="fillColor=none;strokeColor=#147EBA;dashed=1;verticalAlign=top;fontStyle=0;fontColor=#147EBA;whiteSpace=wrap;html=1;" vertex="1" parent="JQFZiihBjb8VBBAp4GYo-42">
          <mxGeometry x="331.5" y="46.25" width="265" height="173" as="geometry" />
        </mxCell>
        <mxCell id="JQFZiihBjb8VBBAp4GYo-56" value="us-east-1c" style="fillColor=none;strokeColor=#147EBA;dashed=1;verticalAlign=top;fontStyle=0;fontColor=#147EBA;whiteSpace=wrap;html=1;" vertex="1" parent="JQFZiihBjb8VBBAp4GYo-42">
          <mxGeometry x="647" y="46.25" width="231" height="173" as="geometry" />
        </mxCell>
        <mxCell id="JQFZiihBjb8VBBAp4GYo-46" value="MongoDB ReplicaSet" style="points=[[0,0,0,0,0],[0,0.25,0,0,0],[0,0.5,0,0,0],[0,0.75,0,0,0],[0,1,0,0,0],[0.25,0,0,0,0],[0.25,1,0,0,0],[0.5,0,0,0,0],[0.5,1,0,0,0],[0.63,0,0,0,0],[0.69,0.03,0,0,0],[0.75,0,0,0,0],[0.75,1,0,0,0],[1,0,0,0,0],[1,0.25,0,0,0],[1,0.5,0,0,0],[1,0.75,0,0,0],[1,1,0,0,0]];outlineConnect=0;html=1;whiteSpace=wrap;fontSize=12;fontStyle=0;container=1;pointerEvents=0;collapsible=0;recursiveResize=0;shape=mxgraph.aws4.group;grIcon=mxgraph.aws4.group_on_premise;strokeColor=#666666;fillColor=#f5f5f5;verticalAlign=top;align=left;spacingLeft=30;fontColor=#333333;dashed=0;" vertex="1" parent="JQFZiihBjb8VBBAp4GYo-42">
          <mxGeometry x="62" y="82" width="790" height="114" as="geometry" />
        </mxCell>
        <mxCell id="JQFZiihBjb8VBBAp4GYo-60" value="Replica 1&lt;br&gt;PrimÃ¡ria" style="rounded=1;whiteSpace=wrap;html=1;" vertex="1" parent="JQFZiihBjb8VBBAp4GYo-46">
          <mxGeometry x="33" y="43" width="120" height="40" as="geometry" />
        </mxCell>
        <mxCell id="JQFZiihBjb8VBBAp4GYo-62" value="Replica 3&lt;br&gt;SecundÃ¡ria" style="rounded=1;whiteSpace=wrap;html=1;" vertex="1" parent="JQFZiihBjb8VBBAp4GYo-46">
          <mxGeometry x="640.5" y="43" width="120" height="40" as="geometry" />
        </mxCell>
        <mxCell id="JQFZiihBjb8VBBAp4GYo-61" value="Replica 2&lt;br&gt;SecundÃ¡ria" style="rounded=1;whiteSpace=wrap;html=1;" vertex="1" parent="JQFZiihBjb8VBBAp4GYo-46">
          <mxGeometry x="335" y="43" width="120" height="40" as="geometry" />
        </mxCell>
        <mxCell id="JQFZiihBjb8VBBAp4GYo-70" style="edgeStyle=orthogonalEdgeStyle;rounded=0;orthogonalLoop=1;jettySize=auto;html=1;entryX=0.25;entryY=0;entryDx=0;entryDy=0;" edge="1" parent="1" source="svqc5sDUxJxUhp27ImZt-160" target="JQFZiihBjb8VBBAp4GYo-42">
          <mxGeometry relative="1" as="geometry">
            <Array as="points">
              <mxPoint x="-655" y="-445" />
              <mxPoint x="-884" y="-445" />
            </Array>
          </mxGeometry>
        </mxCell>
        <mxCell id="JQFZiihBjb8VBBAp4GYo-75" value="Records Saving" style="edgeLabel;html=1;align=center;verticalAlign=middle;resizable=0;points=[];" vertex="1" connectable="0" parent="JQFZiihBjb8VBBAp4GYo-70">
          <mxGeometry x="0.214" y="-1" relative="1" as="geometry">
            <mxPoint x="13" as="offset" />
          </mxGeometry>
        </mxCell>
        <mxCell id="JQFZiihBjb8VBBAp4GYo-71" style="edgeStyle=orthogonalEdgeStyle;rounded=0;orthogonalLoop=1;jettySize=auto;html=1;entryX=0.75;entryY=0;entryDx=0;entryDy=0;" edge="1" parent="1" source="svqc5sDUxJxUhp27ImZt-160" target="JQFZiihBjb8VBBAp4GYo-42">
          <mxGeometry relative="1" as="geometry">
            <Array as="points">
              <mxPoint x="-655" y="-445" />
              <mxPoint x="-425" y="-445" />
            </Array>
          </mxGeometry>
        </mxCell>
        <mxCell id="JQFZiihBjb8VBBAp4GYo-76" value="Consolidation (Cron Job)" style="edgeLabel;html=1;align=center;verticalAlign=middle;resizable=0;points=[];" vertex="1" connectable="0" parent="JQFZiihBjb8VBBAp4GYo-71">
          <mxGeometry x="0.3147" y="-3" relative="1" as="geometry">
            <mxPoint x="-37" y="-4" as="offset" />
          </mxGeometry>
        </mxCell>
        <mxCell id="JQFZiihBjb8VBBAp4GYo-72" value="" style="shape=image;verticalLabelPosition=bottom;labelBackgroundColor=default;verticalAlign=top;aspect=fixed;imageAspect=0;image=data:image/png,iVBORw0KGgoAAAANSUhEUgAAAHUAAAB7CAYAAABKDs/MAAAcuElEQVR4nO2deZwc1XXvv/dWVW+zL9qQkJCQjAAhyZIQGEHAbEp4DvYzwY4Dz35xwA72MxBWsYNYDBaET8DxJw7Gjo0hTggm2An2x9gQcGwWL2Cxo12zz2j23qvq3vdHzYxmuqtnqmd6NkW/z2c+M9N9q/r2/dU595xzzz1XaK01h3FIQU53Bw6j9DhM6iGIw6QegjCnuwOlhq2gPwMpV5NyvNe08n6bBoQMMIUgZkHEBOsQfKxnJakpB3oz0GtrGvuhMwl74rCnV9OV0ThaoAE0ZDWoAVNQCggJEMJ7wRSa2rBgaZVgWSXMi8G8MqiyBNURiBjT9hUnBDFbrN+4Da+3a37ZrNkbh+4MCA3uwA94pI0HSoMAEGAJ0AJqw/Chajh5nmDNHEG5VapvMvmYsaQ6Cprj8IdOzfZOzdud0Gd7g44YIGESoQE9IOnVFhxfBxvmCo6tFswv89T4TMWMI9XV8FaH5tF3NTv6ITrD5ry0gqMr4JJjBWvmTvajNT7MGFL39Wmea4T/btYcSENohpGZi6yChWVw4jzB+UcJ5samu0cHMa2kuhq6UvCtdxQvtUB0Bqu00ZBy4VPLBP97uaAyNP65vVSYNlKb4prvvaN5owsy7vQPxEShNFSG4MNz4K+Ok1SGpq8vU05qVxL+Y6fmn3doItHJN3imGhrvO31pleCUBZ4/PNWYUlJ/tlfzT3/QJCXIWapqg0IAc2Nw2SrB6vqpfXSnhNSWODyxXfPTRk1F+eR8hsabowUDUSIN1sCDY3mhCOwBvWC7gPCiTxowJtFFksD5SwWfOFpMmUqedFJfa7C59gVJWaUgUuIvpbTnYlSamiPKBMfEbJbFHGpCipglqDBcLHmQMM1AGNE1SNqa7qxkR8JkZ8qiOaHpcwQRWfr5XWmoCWvu2ChZXDn5UjtppGZc+O5biu9u11RXCMIlIFRrT6qOrlAsCDssK9d8KGZTE9aEpfc1NGIoLBgExkDIMKME3RnBB0mL3XFBS8ZkV7/0pL8EPGi8gMX/XSnYvFhMqmE4KaS6Gm74heLnezSL5gvMCc6fSkPE0Fy0KM1pc2ykAFtN7hNvSY3S8MsOi8cbI6Td0hChNJx9pOBLJ0wesSUntaEXtrykeL9Dc0S9wBznkoGtYF5Uc3pdllVVLkdGXQxAlbKzASABF2hIGbzVa/BiZ4i2lJjQ6o6rYWUNXLFacsQk2BglJbUlDpc969LQB0fMFVjjIFQA1abLx4+w2VTvSWUx6tQP3V09ANTUVk/oPoN9eaHd4octITKuZCJdW1QOWzdKqiMT6lYeSkbq7h648qcubSmYV1+8ynU01ITgk/X9rKvTxEKl0U1dXd1c+vkrAHjk239HbW3NhO8pgIQLb/aaPN0apS0F5ji6qzTUReHG9ZKjqybcrSGUJMK6uweu/qmiPQH1NcUTGjU0H5+b4rajDvCReqdkhAL09/WRTCZIJhP09/WV5J4aiBlwUq3D1mP6Obs+Q5lJ0VIrhRcmveM3ig96StI1774TvUFL3JPQ5rimtrY4KzejYFmZ4trF3ZxbE6c8ZmGMR2dPI0IGfGZxlhuPibO8XFOs3hPCy9T46u8UPenS9GlCpDb0wmX/4dLWD+VlxfmhhtD8xYIEVyzspM5yCYUtDGOGL80UgBQwL6y54UNx/mxR8cwIAd1puOkVRXO8BP0Z74Wuguuet2mNQyQCVVUEDsuUG5qvLe/k9KokAOFICNOa3XFDPfBz3nybh1b1YhY5slJASxK2va6GMjnGi3GRmnTghucVOw5IhITK6mBsag3rKtJcd1Q3ptBowLQM5CyVUD8oDdGQ5J7j+llT5RStjnf3wa2vKpLO+PswrtH89huKn+3yeltdJQgqZCdVpfncgj6qDBcA0zQIha2SRGwKQQjhPU1ae39PEWpCcPnyJBtq7aKINQS83QnP7B6/uBZtlbzWYPP97ZKIAdEYRKNjX6M1fHpBnJMqUgzX0VZo8o2iuvp6autriUTC1NXXT/rnDYfSgkuOSlMbUjzXFg58nRTw9G7N2no4trb4B7EoP7U1ARc95ZLIepP7nLljuy9awwXzE3y0OoHSXgeFgFA4hFHsxDNOZLM2AKHQ9KUE/ktThBfarcDzpQbKTPjbU2XRqTJFjeojv1PEs97f1QH90U8viI8gFMAwjSkjFDwyp5NQgE8vTHPOvGxgVSyAhAPffb94NRxoZDXw4x2ap9/TCCAUhoro6B+mgbPq05xWlRxBqJSSUHgWJdGOE37T98cXZNhQawcOewrgxSbN8w3FERuI1O4kfPN3eiiIXVkGjh5d16+vSHN+bd8IQgHCEYsfPvUM5iFk8ebCNCRPP/3j/NcFfGlZirVVwU3bkITvfqDpLsL9DTSyT7yl6Yh7UmqaIMOFCXU1zInChXPj5DquhiG5/fa7+fajj3PpJZfT2taGnO0ZZ8MgpaCltY1LL7mcb/3jY9x26115Equ04OLFKaJF2Ih9aXh2b3BpHZPUHV2aR99QCDyVEqkRowavKyy46cgOYkZ+J0Jhi89+7iKUq+jo6OTuO7eRTmUn1aWZKggBtu1wz13b6OjoRLmKz37uIt+2NSH42sreoQX6IPd+bIdmV0+w9qOS6ij4+m+1t9UBMENQMcoTpjWcV5/wvalhSIQUrFixjJtuuZqsbdPU0MJ1195MW1vHrJZYKQVtbR1c/Tc30tTQQta2ufnWa1ixYllBwygWllywMEMm4AJx1IDHd2icAO1HJbU1Dq816qEV+vLY6KkdqyttTq9K+K5WWGHvaVBKc9ofncIdW28gFA7RsL+Ju+/aRldXz+Qlf8W7kfHuSbm3ALq6erj7rm007G8iFA5xx9YbOPW0j6BGsYiUhnPm2pxYHWx+FcAbHdAZYG4dldSbXnRRXvAHw4BIpPCwRw3NBXP68wwj8CxeKQ9+lFKadevW8NeX/SWucmnY38R9X32QzIA/WVL0dWDcsRnjjs3Q11Hy22dth/u++iAN+5twlcvlV36RdevWjErocFy0OEXUZ6ryg9LwzbfGFtWCpP62TfNy40HJjJWJglKqNZxTl6LGdH3f94scaQ1nnX0GV151GbFobNL8SNF3ANG53/vpO1Dy+2utCYUsYtEYV151GaeddkpRYcHaEJw738EJcI0U8HIb7OodvXHBGfJHH2hqBsZZytHDgceWw0erE77vjRZocF3FGWf8EWvXriEajUx7gGA8CIUsbrz5GlKpNNXVVbhu8VlUm+ekeeWAQVtmbGckasB/7oPLVxdu43uXjAu/3quH5jjLgkJupQZOq+kvKPJBDKDq6irC4eCx0ZmGcDhMdfX481EsCX9exDrs79o1GX+lCBQg9UfvaNqSB/+Pxgqr3jlhxcqywnOhYczuddKpwooKl9pQMCnvTMOzo6zi5JGadOD+1zWxgXc0ECkgRI6GixcmMbX/YyOEQMxiV2UqEZZeWowdgNeQhH/bqwuuueaR+m67xknrIcmMhL051Q/LKzRHW0n/N/EMpEMhsDBVWFtpszQWXFp3FkhWy6Pr1816RKJyJOrPitawsTyBHiUGPFtzjqYTH50bbCUnasDrHf4NR4y6q+GFPQcbCgGFDNK00qyOZQqmRR5WvePDmgqbdABhFcCbnf7ZiyNIbYlrGnsP/m9rL+iQCw0cX66oNAt/uiyksw9jVNRE4PgKN1AO8d5+fFdvRoz8f+326hcMwpD+86mr4YI5/aN+oDjM6bigNFx8ZDpQhkTahZ/tz284NPQZF366RxMbJpnlBQIO86OwJJod9WmayiSvUsO0zGnt/9IKl/rQ2KxaAl7z8VmHSO1LQUu/HhFUDxeI9S6NZMdcvZ+N/ungeuiXL7uaL/zVV0gkEtNivWsNK0bx/QchBDSnIJnTdIjUjpQmkfOmn3+qNCyJ2Oix1lRmmaAKAelUlnvu2kZTYzMdB7qw7Qkk304ArhasqNCB0l60gq7MyIZDpO7r82r9Db0hvRzUXDgaVsRGiVENYDZpXykFHe2dXHftzTQ1tOA4LtdtuYLa2uqik7FLhaNjwR4oV8GB1MjXhkht7NWoYcasYeA7WYclVIggqmF2sCoE9PT0cued9w2th952x/WccsrGwMtnk4G6sPIVqlw4Gj7IWSoeIvX3LSPdEz+rVwOLIoqKAktssw1SCnp6+rjpxjtp2N+E7ThcedWXiloPnSxUWN5Yj9ULIWB/zqaqIere7pYj5kG/wIGjYXVldiJ9nTEQAlpb29ly/W00NTZjGha33nYdmzadNG0qNxcbauwx11kFsKdvZCMTIGGDkx1p+vgZr6aAhdbsJ1VKQTqV5Y7b76O9tYN4f5JtD2xlzdoTxrUeOhlQGhZF3UD7YvqyGlsdrDIuAQ6kNLnfxU/9GgJqTdc3ZWW2QEhBU3Mrl3/lGlqaWhBScvvWLaxbv2a6u5aHuoi/sZoLW4sRkSUJ0Jcgb8nH716WhGpr9s6nUoCTdbnnrm0cONCFo1xuuuVqNp160oyR0OGoD7mBdhSmXU9aB2GCV8o8q0bW2JVisHTiQYQnoRrYZEFKwa5de3nmBz9mV88mAI589Ic0tHfT2NCCEILrt1zB+vVrp90oKgQpvDEfLcthEOlhs6IJXkQit2iyH3kRMXvOPNm5czfXXn0LWmmk4W0ba3njPcDbF3vTLdfMCCt3NAgGyroHSLLsGkaqBK9CSC4cn4piQqrAgSI9MFjTkaRtWibfeuQxhBC+u9SXL1/GiRvXTzmho42Fn1svAanHnhYswYgsCBOgJ2C6ra0YEXYSQtDQ0Mg119xMf19+BQopBBd++uN8+SuXTumclehPsm/v/oLvNzU3Ee9LEC51BcxRYBiSv3/4EZ78l2dQPj5TZWUFD339Xo46avEI3zTIc2cIb/ocREGL2e9eknwDqrmlGdd1KSvP3xmrtea993dMeXQpkUyMukCvlNdmKkkVQvDe+zuIxCK+4+G4Dk0tLSxdtmRIy40XJkCdz3fzS4AyBV76yoC0aq3ZsGE9t9x6LZlMZmRby8CwDI5asgTHmVqLee68eqqrKmlN+add1tbWMHdu/ZT2y3Fcttz4N+zdt8+XtHAozJo1J4yYEjSFU3OHI51j5Jrgf8aKnyWd1jKv4KMUktUnnJDXNhS2sELGtERnXMflT8//Ex5+6B+J5Cw1pdMZzjvv3Cl/0ADmz5vHgvnzfN/zGycNOAFN07nD1r5NgDIrXywdn3nWcQdyYgJoU9dVmHp61lS1hs2bz0K5ih8+9SPaOzoBmDunjj/71CfYvPmsaenXYN8Ct2WgingADBdME6A+JsktuuqpgZHs2YjgpVmn21MQgvM+di6bzz2TfY1NACxZtBAjZM6Y2O5YUJrAWx0jw6wjE6Ayll8F03W9A+6GlwHwzlUTBGHMdV1gevfGaA3SMjn66KMA70GdLYQCHMiIQLlKETnydEkJUBXOr7SiFGTdHElV0JwxB6JNY8MJqjsmGUrpGR1kKITOjAyUsS8F1A/Lz5YAlWF8K2jnGLQ4GvZmg29kmimkzkZIAY0pI9AWx5owlA1TinLwBsdUizylms7JfTEFvBsP7ttprSbsc/1PhUDzTjI8ZnFoDSzPqQ05pInXzM2/oD9nm4wAmjMi8NKb1sxKtTcT4CLZFx8zvQ+t4ciyka8NkbqkTuTdQOAZTMPRbws67OD1Ytxp8AcPBbSkoM8eW3ikgDk5wbwhUudX5C8GGEAuJ4aAvengVu10OPmHAvbEjUB1+aWAhTknZhwkNep/OoWTk6koBexOW+TPwIWRzUxP/uxsxp6UEWjtWkqYGykwp9aVwZHl+R5oKplPnufWBO+g67jMkLN3ZwUsqdmbCBaNWxj1vJfhGCI1ZsKGBSKv+FIqkz+v7k0adNvBQ4Baa9wgVZ0OA4CurGBXAFK1hhXVEM5pOiJa/ImVAjtHoAwB6ZzFDg0831dR1M6KbKa4CtX/UyEF/KQ1HCiM72g4Z7FP3arh/yyrESytzL84lRoZXhPAc+0WqSLPW7Mno/jVIYa4Az9pC1aCflEZLKsag1RLwtoF+SaQ4+QnPxlS8F6yuDI5rqsOS+sY+CBhYQZMKlhdL3xTSPOk/MyjRF68USnI+AQiftMfCRwHBi9vyckednEKwZSaX3UEjwFs8AkYgQ+pK+u1b65pKjlyAxXAewmLviIMJgDbtg/7rj4QQHtK8vueYKQqYLmP6gUfUueVS85alm8FKwWp9EiptF34cVdFoE4Mh3s40J8HDTzWFAtkfGoNZy/06kP4wdfIumqj9N1Lk0yAMWzGFQJ+22vRni3uKBLXVWRSs39PTinRnJa811u4stxwWAb8n5WF7WPfd+rLYM28/LvbNsTTI2PEWSV4qae4uRU8Yh3bQQBKqVkdnNBao1TwnOhcGELzQrtFNqA3sapOUDWKjVqQ7j9dIUbkkg6iN2dzshTwUk+UnakApw7lwM66NLW0sPX2e/nBE08Wff1MgNaaxx/7AVtvv5cDHZ1FJ68L4O0eg+faQ4GidCkXzlw4epuCpJ61TGBZ+WFD5UImZ24VwL+3R/MCF2OhuaWZO+/4Gtu3v82L//WrvDTT2YBsNst///IVtm9/m5tvuYumxuaiSiOkXHiyORL4OOyaMJzoo0WHo+CtYhY8cI70l1af4yD3p03+0B8JHOh3XZcHHniY9tYOlFJ8/gufzUvnnA2IRMJ8/gufRSlFe2sHd911P5m0HUhiDaH5RXuIhlQwD8LRsGW9zAsL5mLU52P9fMGKuvzOuQ7059TG0sATbeXst8dWw21tbVx77Y20NrdhWhZf/n9fYO0Jq2flgrrW8JGTT+S6LVdghSxamry9r80trWNe+0G/wdMt4cDrXUsr4JgAx6qPSmrUhIuOE75piv39mmyOAetqwRMtsVGl1TRN7rvvwaH9oddtuZxTN52C47ikErNP/YJn9G3adDLX33AljnI5cKCLu+/cNuqBSobQfL8hEti4Srrwx0vEmFIKAXYm/skxgg3z/Wvl9fblv9qQMni8tdKXWCEEt956J61t7WSzNldd9WWOP/b4EZZvOplFzcANwGNBa1i/fi1btlxJMpGioaGZrVvv851fhYBv7omyLxlM7SoNG+fAZp/gvR/GJDUk4brTQwgfV9TOQiKndL4h4OXeCC/2leW1F0LwFxdfCFpyzz23cvJJJ6FUbhK5Ip2ancQqpTn1tI/w8De24WQ0n/zk+XltBPB8R4iXO61AW//B05iXHi8Dr2EHOmrT1fD3ryoee1PndUQIqKsXeSVkDaH5yyPSrC6Lj5BZKSW2Y2OZVh6hI+8rMMzZedifEF7UzLCMvNWtN3sNvr4nlldjoxCyCs5bLPjiCf7Bez8EMqQNAZdtlCyuy1eqWkN3V35c2NWCbzZG2JUemVKqlMKQxqiEevfVOLZLJm3PusCE1iDNfELf65f87c5oYEIBPlQFl64KTigUsdvfknDbJuFfKtaF7m5N7qZnQwi+01xBSxGJann3dlzSqeyEEsMNQ05rlXAB7OuFb+yOYRThxLrAJceLwD7sIIpqvnqe4LL10nd3cyYDcZ9y+n2O5KGmKnakw+MOo2mlyWZsshmnaLdHKcU/fOM7/MM3vjOmdpgMCODdPskDe8tJusFHQGv41DLBypriR63ox/fi1YKTl/h/UH+fJpHIH/SkK/i7fRVsT5T7XBUcju2QTmXIpINnUDQ1NvHUk8/w1JPP0DSw+22qIIBXe8N8bUesKEIBNs6DzxwjxlUNp2hSpYAtJwvKI/57Lfv7IZ3Jv7EhBI82RXi1P7hv5gvtqeRkPB1IcpVSCOnV859SSdWa5zpCfHtPqCiVC561e8lxwa3dXIxrojmiUvDsZwxfN0cpaG7XZLP5g60RfL+5gu+1VBSVN1wIju2QTmbIZmZW7pMhNI/si/LP+8NFGUXetfBPZ8u8rPtiMG7rIWTAvWdK38JNEQM6uiDjs2QqBbzaF+He/XU02MFjxaPBsb1oVDqVnbbCy1prnKzNzn7Jre+U8XKnVbSkKQ1XrCneMMrFhC4/Y4nggXOlfxlZBV2d2pdYQ0Bz2uDBveX8pi+KXYJah1prlKuwMw7JeJrMgMU8Wd6Q1gc/M53MEE9k+fUBi/t3xmhMGUW5IODtKLxmreDUIyY+FhO2809fIrjmZOl7Au+gDxuP+4+sqwXfb63g4YZqdqeLX2gfDa6rPIt5mOQ6jovrqHEtHChX4TqKTNomk8qSSWVIJ7Nk0xn2pMJ8vamGx1srBnbaF4eMgs+tFJxSAkJhlDpKQWFI+ORxApA8+KrKKzyhlGc8aaC8LL+ylwb2pU3u31vBGTUmZ9emqLOCncsSBKZpDBXmElKSSWdz3h8YgtzxHJBEN3d7Agebd9oGv+6N8bOuYLlFfjAE/PVxgv+1tHS1pgKFCYPAVfDSPs31P1cF55JIBGpqCufhKA1hqdlQZfOx2n4qrYmXoVVK8YtfPA/AWWedOeFDkKTQJF3Jvx+o5Le9Fhk1PrcDvO979VpPQotV16OhZKQO4oV9mi0/V6B8pFJDKARV1fmx4tx2lgEbK1Ksq7RZEc0QrHyIPwaPUykkdWNh8LN3pkJsT0Z5rdsi6QZLEhsNV6wVnF4ilTscJScVIOvCyd9zCRUYQ1dDbbWgLH8hJw8ZBeWm5uJFGT4c6UcK72iPsfdYTxyG0CgteKU3yr+2l5FwBeESRBtNCY+eJamYpLWKSSEVYH+v5v6XNa806ILqyYpAdYWXCzUWtPaWAZdGsyyJOhxX7lBv2COKSo9XVQ830HpUiJaUxa6sQWNC8kEyRNJlwm4GeA/z2nq49DjBoorJeygnjVTwvsS9ryp+sN07ZNfvawgBlVWCWDT4WTYaLxOg0tSEJayvdlgeSrMkahOV3tEfQmgMGOYHi6Fr3YE/HC1IKUl71uADO8Z7cYuWpMZWnmot5bDbGk5fAFeulRQ4or1kmFRSwTMGXm3U3POyYl83I86SGw7TgvJyj9xioQc+x5ID5+YYgFBY2iVmakzhPWAZ5dUxTmMQEtBvS5Lau9bVXmCk1PKjgdowfPF4wbq5YtIJhSkgdRAJGx56RfH0BxpU4bLt0SiUV3jFumbJeUW+UAMPycZ5cNkqOWrydakxZaQCOAre7dLc95Li7QMUNDqEAAyorhREIrPu2DiSLiwIweXrJMfV5u/0nmxMKamDSDvwr+9onnxf0djtGUCFiAuFIFbuFRnxKzQyU6C1ty0lasB5iwQXrhKUT1MmzrSQOoi4Dc/u0Gz9lSKk8w9nGA4hwLI8o2o0H3eqYQpNTxxaeuGqDZILjhV5hTWmGtNK6iA6U/CfOzQ/3615s12P6QtKCdGYIGRqTEtgml64cipywZUC2wHtaLqSsDgq2LRUcOFKwRETywEoGWYEqcPxSqPmntc0uzs05YZnPY41pwrhqenyCoFheAQLAlwYAKbQZBxBOg3ptPbSdlxYUgO3nCI5edHMm/FnHKnguRd7ezSvNMMv92peb9Vk3cKG1XAI4f0YhlcZVUiGyt4apn+cVg0E71GeMadcL5lOacg6A7WPTVg1R3D6EsGHF8CxdaWN15YSM5LUXLQm4Pldip/sg93dGuV467UjwwoTx+D9pLfoRGUI5lYKPrYEzlw+sWyEqcSsIHUQtoL+NDTGNTu6NHs74fcdXkgya/uf0GGJg/6u1uRttxR4WRxVUVhRJVi1AI6uESyqgvkRQVmkNCHCqcSsIrUQHAXNcU1fEpr7oS8D3TY0piGT0WQznnEVCguOiEDYghoLllRBTblX1bq6QP2E2YhDgtTDGIlZplgOIwgOk3oI4jCphyAOk3oI4v8DPVHNeQtsQiMAAAAASUVORK5CYII=;" vertex="1" parent="1">
          <mxGeometry x="-416.00000000000006" y="-404.83" width="27.59" height="29" as="geometry" />
        </mxCell>
        <mxCell id="JQFZiihBjb8VBBAp4GYo-74" value="" style="shape=image;verticalLabelPosition=bottom;labelBackgroundColor=default;verticalAlign=top;aspect=fixed;imageAspect=0;image=data:image/png,iVBORw0KGgoAAAANSUhEUgAAAKEAAAChCAYAAACvUd+2AAALHklEQVR4nO3dS2wc9R3A8e9/Zva9jneNH+Fh40BCDi0UVX1AHi0ImiaqOFbqhWMvVVUKLWpFEQfUVkUtUlu1VSWUE1JVqeqNAw0pD0ECTdoKQqFNgohxiGM767c9uzs7M/8eNgmvYO/YO/vfiX8fKTe8/nvnyzz+s/sfpbXWCGGQZXoAQkiEwjiJUBgnEQrjJEJhnEQojJMIhXESoTDOieNF/VDjeiHVRogXaoINTofnbUV/wSaUefXILKWorAS4q2yE3oxFKeugVAcH9iFtjXDW9TlZqXN63md8ts7YvMd8NcD1wnW/pq9hz3UpHtzdS8OXCKNKOYo/vrrAKxMNnCtGpvncdTm+/cVr2NabNhJiWyKcc32OnnU5NOZy5kKN8RWf9MW/xrFgI39XNdBUfbsdw9y0qn5IpR6Qs6+8JZ4fc6kH8PDufq7tSXV4dBuMUGt4c7rK06/P89Z0jelqSMaCwqf8saI7OQr+8b7L4y9O87N7hujLx3KW9qnWfWESajgyvsyPD0/x8lmXhXozQJFcJ6ZqfO/Z88y6fkd/77qyCTW88O4SP3puioVqgBwsrx7vznp899nzTC416NQZeOQItYaj48s89sJ0HOMRhilgfM7jyaMVxhc8OjEhEfng/+Z0lZ+/UoljLFctpcCK8TQ5DGnrXktrePV9F+uY4jtf6uPG3nQbX/2TIkU45/o8/fo8s3IIblmIZmLOY2K+Gtvv2DZQoL+Q2tAsxMdpDa+8t0K9EfLoVwfpL8R3sRLplY+edXlruiYBRhCE8NK7c/zpXxPEMWmQshTfv2sbu28qtTXCS45PVHn4uUme3Lc1tqvmll911vU5NOZenoYRrdFAzdcsVRukYjgm27aFF8Z74naqUueBZ8/zm/3XxhJiyzmdrNQ5c6EmAa5DvLOmnZmTfWfG44eHpzi30Gj7xUpLSfmhbt6KW+ns/JHoHpaCUxdq/PbYDO+1+aq5pQhdL2R8tn75VpzYnLSGI+Mr/P7YDOcWvba9bksRVhshY/Pt+6UiuZrzxC6PvXShbXdWWorQCzXz1QBHzgfFRf+dqvFAm27xtZRVoJuHZDkYr0/KUqRsqzlrHcc/A1vGUs1bfD84NEllg9cKnf24xCZl57eQHxyN5bUtS5HJ5o3tIE5V6vz0pWke3N3PyJb1fR5RDrBiw45PVPnDsVnGF7113T6UCEVbHBlf4XevzTC11Ij8sxKhaItLH3p46LnJyBcrEqFoG61hbNaL/MFYiVC0lQLOzHr85O9TnF9q7RafRChicWKqxi+PVDjTwi0+iVDE5shZl6eOzzBfW/3QLBGK2DgK3pioslBf/XvnEqGI2dqz1xKhME4iFMZJhMI4iVAYJxEK4yRCYZxEKIyTCIVxEqEwTiIUxkmEwjiJUBgnEXZAnN+EM/OFz/ZKxFc+fZ3ct9lScH3R5svXZ2J5fVtBX371fUm3v39dH2FKKeYSvAKJoxR7RjLcORzfaqe2UqvuDee85vvYrbo+QseCsZllfH8LST3wWDSfrGSC74eMzSzjWPEu+bsRiTgnnHIbvD2xjC3PR4nEthVvTywz5Ub/LnAnJSLCEDh4dBx/ow/J22T8QHPw6Djrf6hbZyQiwqINL59b4pkTkwTykMWWBFrzzIlJXj63RLHLFxnv+nPCS4q2xcHj53Eci7tu6aeQsoh5qeZEshSsNEJePFXh4PHzFO3u388kJkKAxWqDp147x5mKy707+9kxVMCJ8wEhCeOHmv9NrnD4ZIXD78yxWG0k4lIuUREqYH6lwV/fnOb5M/Ns7cnw+a0F+nMO6QT8Hx8XLwipVH3+PbnC5FKduWUPHWLs+cVRJSpCaL6xWsPMosfskscb5xab82QJecPjoHXzHDClFFp/aO3MhEhEhE6mgIfi0sOzFB+8yZcXc9/k54f2xffhk/EpnEyh4+OJIjHHMDubNz2ERErC+5aYCJ3cFpTV5XMNXUZZNk5ui+lhrCkxEdrpDKliWUJskbJsUsUydjqeD060U2IiBIWTLZIqliTENTQDLOFkiyThfnsiLkwuU6p5WHbSNBYrhH533xM1wXJSpLb0Y6eypofSsmRFeJGdymJfcwOB5+LXVkwPp2s42QJ2uvsvRD4ukRFeYqfziXzTxUcl6JxQXK0kQmGcRCiMkwiFcRKhME4iFMZJhMI4iVAYJxEK4yRCYZxEKIyTCIVxEqEwzvinaAINNfkWu3FZS2FqqR9jES77moGczR1bM9xQhJ6U7JRNWWqEvL8Mr03WuVANKDqdrbHjEaYdxReGMnzrs73sKMsesLv0cHpO8ef/LPDPqTqe35nt07EINVDOWnxzZ56vb8+ST2lZZasLbS/DQ3cU+ds7Dn856TJXC2P/lkrHjoFpW3Hf9hz7t2fJWopAAuxKQaDJWor927Pctz1HugMnih2L8JayxYGbc2QstdkXS+h6GshYigM357ilHH8iHYmwFmoOjOYoZSXApNBAKas4MJqLffaiIxHOBnDbtVmCbl8yVHxEEDa322wQ7+/pSIR5GwYKMgWTRAMFi3zMaw10pIzhnKyYkGRxb7+ORJiSVfcTLe7tJ8dIYZxEKIyTCIVxEqEwTiIUxkmEwjjjH2ptxdKKy9zcvOlhJFa5XKKn0L1L6CUiwjAMmV9YND2MxOrt7e7F0+VwLIyTCIVxEqEwTiIUxkmEwrhEXB0DWPJc46tWIiJ0HJvBwQHTw0gsx+nuz3MmIsJCLkchlzM9DBETOScUxkmEwjiJUBgnEQrjJEJhXCKujgG0rN2wbqrLH7ydiAjdao3p6Qumh5FYg4MD5HPd+xDuRETY8H0Wl+Xh2utV7iubHsKq5JxQGCcRCuMkQmGcRCiMkwiFcRKhMC4RUzQ9xQI3jtxgehiJ1VMsmB7CqhIRoaUUvT1F08MQMZHDsTBOIhTGSYTCOIlQGCcRCuMkQmGcRCiMkwiFcRKhME4iFMZJhMI4iVAYJxEK4yRCYZxEKIxrKUJbQT5tyRoIIhJNs5u1HpfcUoRpS1HK2fhhG0YmNg0/hFLOJr3GUs8tRZhLWYyW0m0ZmNhcRktpcqnVM2spwnzaYqQvg6flgCxa52nNSF+GfLoNETqWYkfJYaSQiK+kiC4xUnDYUXJw2nE4BtjZn2HbQJa6nBeKFtRD2DaQZWd/Zs3/tuVdW1/eYd9ontPTVRYilmih8YOAhlzZJJDFeuZFBnMW+0bz9OXXTizS8XXXcJ4Xx1Z4+axLlCdjZAg4e26KMAii/DrRBSzbJoMNERbaDIDPDGbZNdzaM5YjRVjOO9x/e4m3KnUWqhGC0pqFxSXCUPaESWNZFuheokS4JWNz/+0lyi3sBWEdd0xuHczxyJ7+iD+lsFR3L1krrqy53VrfdtVA8+hX+rl1sPWHH0WOUCnYNVLk8bsHo/6ouMpVA80T9wyxZ6RIlH3Ouu4dWwruvqmHJ742RG/ORs70NrcAKGRsfr1/K/fc3EPUZ2Gu+wMMloLdI0V+ce8Qe4fz9GYsmb7ZZOoh9GYs9g7n+dW+IfaOFCMHCBtcEEkpuG0oxyN7Uxw963JozOXMhRrjKz7pj+yPNaHcbUmk5nbTNMIPtqenNSMFh20DWfaN5tk1nG/5IuRK2nILpJx3+MbOLdw5nOdkpc7peZ/x2Tpj8x4V16ecdVBKYdvd/chTcWXlXBpPafrzDqOlNCN9GXaUHHb2Z1qaB1yL0rr9uyg/1LheSLUR4oUaG0VvqtHuXyM6ZKGRIkCTthS5lEU+ba15Ky6KWCIUIgr5ZLUwTiIUxkmEwjiJUBgnEQrjJEJh3P8BMng52V4xRGMAAAAASUVORK5CYII=;" vertex="1" parent="1">
          <mxGeometry x="-919" y="-403.66" width="26.67" height="26.67" as="geometry" />
        </mxCell>
      </root>
    </mxGraphModel>
  </diagram>
</mxfile>
